# xmcd
#
# Track frame offsets: 
#        150
#        33817
#        52689
#        82973
#        104756
#        134482
#        161177
#        183976
#        205591
#        228598
#        242622
#
# Disc length: 3503 seconds
#
# Revision: 0
# Processed by: cddbd v1.5.2PL0 Copyright (c) Steve Scherf et al.
# Submitted via: ExactAudioCopy v1.3
#
DISCID=890dad0b
DTITLE=Jimmy Dawkins - West Side Guitar Hero
DYEAR=2002
DGENRE=Chicago Blues
TTITLE0=Alley Mae
TTITLE1=Jammin' Gitar
TTITLE2=Go On Baby
TTITLE3=I'm What U Need
TTITLE4=Sweet Li'l Mama
TTITLE5=Everybody's Jumping
TTITLE6=Dollar Head Woman
TTITLE7=Wess Cide Rock
TTITLE8=Shee Leff Me
TTITLE9=So Wurrid
TTITLE10=U Made Me Luv U
EXTD=
EXTT0=
EXTT1=
EXTT2=
EXTT3=
EXTT4=
EXTT5=
EXTT6=
EXTT7=
EXTT8=
EXTT9=
EXTT10=
PLAYORDER=
